<svg xmlns="http://www.w3.org/2000/svg" version="1.1" xmlns:xlink="http://www.w3.org/1999/xlink" width="512" height="512" x="0" y="0" viewBox="0 0 512 512" style="enable-background:new 0 0 512 512" xml:space="preserve" class=""><g><path d="M256 0C114.848 0 0 114.848 0 256s114.848 256 256 256 256-114.848 256-256S397.152 0 256 0zm16.256 83.168 65.824-35.392a225.057 225.057 0 0 1 92.448 68.16l-15.68 72.384-50.208 24.608-92.384-67.296V83.168zm-97.792-35.584 65.824 35.52v62.528l-92.32 67.296-50.464-24.64-15.68-72.832c24.256-30.016 56.128-53.536 92.64-67.872zM71.36 382.528c-20.896-30.4-34.496-66.144-38.24-104.768l54.176-58.848 49.408 24.16 37.216 105.696-31.456 37.696-71.104-3.936zm241.696 89.824C294.784 477.184 275.744 480 256 480c-23.872 0-46.848-3.84-68.448-10.784l-20.128-62.656L199.52 368h113.088l31.52 37.312-31.072 67.04zm56.032-86.976-30.944-36.64 37.728-105.664 49.184-24.096 53.856 58.816c-3.232 33.312-13.952 64.384-30.24 91.872l-79.584 15.712z" fill="#000000" opacity="1" data-original="#000000" class=""></path></g></svg>