<svg xmlns="http://www.w3.org/2000/svg" version="1.1" xmlns:xlink="http://www.w3.org/1999/xlink" width="512" height="512" x="0" y="0" viewBox="0 0 512 512" style="enable-background:new 0 0 512 512" xml:space="preserve" class=""><g><g data-name="Layer 2"><g data-name="Layer 1"><circle cx="256" cy="256" r="256" fill="#061c19" opacity="1" data-original="#061c19" class=""></circle><path fill="#ffffff" d="M275.21 290.34c-3.06 5.78-6.8 8.84-15.3 8.84h-7.82c-8.5 0-11.9-3.06-15.3-8.84l-25.5-46.92v129.2c0 10.2-6.8 17-17 17h-26.18c-10.2 0-17-6.8-17-17V139.38c0-10.2 6.8-17 17-17h20.06c10.2 0 15.64 3.06 20.4 12.58l47.6 97.24 47.26-97.2c4.76-9.52 10.2-12.58 20.4-12.58h20.06c10.2 0 17 6.8 17 17v233.2c0 10.2-6.8 17-17 17h-26.52c-10.2 0-17-6.8-17-17v-129.2z" opacity="1" data-original="#ffffff" class=""></path></g></g></g></svg>