<svg xmlns="http://www.w3.org/2000/svg" version="1.1" xmlns:xlink="http://www.w3.org/1999/xlink" width="512" height="512" x="0" y="0" viewBox="0 0 480 480" style="enable-background:new 0 0 512 512" xml:space="preserve" class=""><g><path fill="#fff9f9" d="M480 240c0 132.547-107.453 240-240 240S0 372.547 0 240 107.453 0 240 0s240 107.453 240 240zm0 0" opacity="1" data-original="#f2f2f2" class=""></path><path d="M448.863 121.832v.078c-3.054-5.406-6.238-10.719-9.695-15.847l-17.824 75.753-93.918 31.305-78.86-63.09V57.105l89.922-35.953-1.824-.8c-2-.864-4.008-1.711-6.023-2.543a240.086 240.086 0 0 0-180.618-.29c-2.363.961-4.699 1.95-7.007 2.97l-1.961.886 90.379 35.746v92.91l-78.86 63.09-93.894-31.297-17.825-75.762c-3.113 4.618-6 9.395-8.8 14.235v-.074A238.847 238.847 0 0 0 0 239.938c0 7.527.39 14.957 1.082 22.312l53.184-63.852 92.847 30.946 23.582 94.336-45.894 61.199-85.41-13.488c1.48 2.242 3.043 4.418 4.586 6.601l-.32-.047a240.457 240.457 0 0 0 126.741 91.766l-.175-.328c6.547 2 13.168 3.808 19.937 5.242l-51.152-80.082 45.297-60.39h111.43l45.952 60.687-44.605 78.113c5.711-1.402 11.324-3.066 16.879-4.863l-.152.293a240.444 240.444 0 0 0 122.535-90.399l-.32.047c1.542-2.183 3.105-4.36 4.585-6.597L355.602 384.8l-46.29-61.121 23.575-94.313 92.847-30.969 53.188 63.825c.469-5.102.742-10.262.902-15.438.063-2.273.176-4.527.176-6.808a238.78 238.78 0 0 0-31.137-118.145zm0 0" fill="#000000" opacity="1" data-original="#000000" class=""></path><path d="M240 480C107.453 480 0 372.547 0 240S107.453 0 240 0s240 107.453 240 240c-.148 132.484-107.516 239.852-240 240zm0-464C116.29 16 16 116.29 16 240s100.29 224 224 224 224-100.29 224-224c-.14-123.652-100.348-223.86-224-224zm0 0" fill="#000000" opacity="1" data-original="#000000" class=""></path></g></svg>