<svg xmlns="http://www.w3.org/2000/svg" version="1.1" xmlns:xlink="http://www.w3.org/1999/xlink" width="512" height="512" x="0" y="0" viewBox="0 0 24 24" style="enable-background:new 0 0 512 512" xml:space="preserve" class=""><g transform="matrix(1.1800000000000002,0,0,1.1800000000000002,-2.1599998712539694,-2.1600000858306903)"><path d="M15.54 16.54a1 1 0 0 1-.711-1.7 4.022 4.022 0 0 0 0-5.674 1 1 0 0 1 1.422-1.406 6.021 6.021 0 0 1 0 8.486 1 1 0 0 1-.711.294zm-6.377-.289a1 1 0 0 0 .008-1.414 4.022 4.022 0 0 1 0-5.674 1 1 0 1 0-1.422-1.406 6.021 6.021 0 0 0 0 8.486 1 1 0 0 0 1.414.008zm10.269 2.42a9.949 9.949 0 0 0 0-13.342 1 1 0 0 0-1.483 1.342 7.949 7.949 0 0 1 0 10.658 1 1 0 0 0 1.483 1.342zm-13.452.07a1 1 0 0 0 .071-1.412 7.949 7.949 0 0 1 0-10.658 1 1 0 0 0-1.483-1.342 9.949 9.949 0 0 0 0 13.342 1 1 0 0 0 1.412.07zM12 10.5a1.5 1.5 0 1 0 1.5 1.5 1.5 1.5 0 0 0-1.5-1.5z" fill="#ffffff" opacity="1" data-original="#000000" class=""></path></g></svg>