<svg xmlns="http://www.w3.org/2000/svg" version="1.1" xmlns:xlink="http://www.w3.org/1999/xlink" width="512" height="512" x="0" y="0" viewBox="0 0 512 512" style="enable-background:new 0 0 512 512" xml:space="preserve" class=""><g><path d="M467 242H45c-24.814 0-45 20.186-45 45v180c0 24.814 20.186 45 45 45h422c24.814 0 45-20.186 45-45V287c0-24.814-20.185-45-45-45zM136 452H76c-8.291 0-15-6.709-15-15V317c0-8.291 6.709-15 15-15s15 6.709 15 15v105h45c8.291 0 15 6.709 15 15s-6.709 15-15 15zm75-15c0 8.291-6.709 15-15 15s-15-6.709-15-15V317c0-8.291 6.709-15 15-15s15 6.709 15 15zm119.546-116.367-30 120C298.876 447.313 292.885 452 286 452s-12.876-4.688-14.546-11.367l-30-120c-2.021-8.027 2.871-16.172 10.913-18.179 8.013-2.08 16.172 2.871 18.179 10.913L286 375.155l15.454-61.787c1.992-8.042 10.137-13.008 18.179-10.913 8.042 2.006 12.935 10.151 10.913 18.178zM436 362c8.291 0 15 6.709 15 15s-6.709 15-15 15h-45v30h45c8.291 0 15 6.709 15 15s-6.709 15-15 15h-60c-8.291 0-15-6.709-15-15V317c0-8.291 6.709-15 15-15h60c8.291 0 15 6.709 15 15s-6.709 15-15 15h-45v30zM123.988 204.009c-43.77-58.301-43.77-139.717 0-198.018 4.966-6.606 14.385-7.969 21.006-2.988s7.954 14.385 2.988 21.006c-35.815 47.681-35.815 114.302 0 161.982 4.966 6.621 3.633 16.025-2.988 21.006-6.593 4.946-16.016 3.664-21.006-2.988zM367.006 206.997c-6.621-4.98-7.954-14.385-2.988-21.006 35.815-47.681 35.815-114.302 0-161.982-4.966-6.621-3.633-16.025 2.988-21.006 6.621-4.966 16.055-3.618 21.006 2.988 43.77 58.301 43.77 139.717 0 198.018-4.982 6.642-14.4 7.942-21.006 2.988z" fill="#000000" opacity="1" data-original="#000000" class=""></path><path d="M177.734 175.005c-35.742-39.902-35.742-100.107 0-140.01 5.537-6.167 15.059-6.665 21.182-1.172 6.167 5.522 6.694 15.015 1.172 21.182-25.518 28.506-25.518 71.484 0 99.99 5.522 6.167 4.995 15.659-1.172 21.182-6.146 5.515-15.654 5.013-21.182-1.172zM313.085 176.177c-6.167-5.522-6.694-15.015-1.172-21.182 25.518-28.506 25.518-71.484 0-99.99-5.522-6.167-4.995-15.659 1.172-21.182 6.152-5.508 15.659-5.01 21.182 1.172 35.742 39.902 35.742 100.107 0 140.01-5.526 6.183-15.035 6.688-21.182 1.172zM256 150c-24.814 0-45-20.186-45-45s20.186-45 45-45 45 20.186 45 45-20.185 45-45 45z" fill="#000000" opacity="1" data-original="#000000" class=""></path></g></svg>