<svg xmlns="http://www.w3.org/2000/svg" version="1.1" xmlns:xlink="http://www.w3.org/1999/xlink" width="512" height="512" x="0" y="0" viewBox="0 0 34 34" style="enable-background:new 0 0 512 512" xml:space="preserve" class=""><g><path d="M9.2 33H2c-.5 0-1-.5-1-1v-7.3c0-.6.5-1 1-1h7V32c0 .3.1.7.2 1zM23 20v12c0 .5-.5 1-1 1H12c-.5 0-1-.5-1-1V20c0-.6.5-1 1-1h10c.5 0 1 .4 1 1zM33 26v6c0 .5-.5 1-1 1h-7.2c.1-.3.2-.7.2-1v-7h7c.5 0 1 .4 1 1zM25.1 8l-3.3 3.2.8 4.6c.1.4-.1.8-.4 1s-.8.2-1.1.1L17 14.7l-4.1 2.1c-.3.2-.7.2-1-.1-.3-.2-.5-.6-.4-1l.8-4.6L8.9 8c-.2-.2-.3-.6-.2-1s.4-.6.8-.7l4.6-.7 2-4.1c.3-.7 1.5-.7 1.8 0l2 4.1 4.6.7c.4.1.7.3.8.7s0 .8-.2 1z" fill="#000000" opacity="1" data-original="#000000" class=""></path></g></svg>